<?xml version="1.0" encoding="UTF-8"?>
<svg id="Calque_1" data-name="Calque 1" xmlns="http://www.w3.org/2000/svg" viewBox="0 0 2350.85 258.99">
  <defs>
    <style>
      .cls-1, .cls-2 {
        stroke-width: 0px;
      }

      .cls-2 {
        fill: #1d1d1b;
      }
    </style>
  </defs>
  <rect class="cls-2" x="1039.05" y="204.29" width="7.42" height="53.8"/>
  <polygon class="cls-2" points="971.78 211.19 989.63 211.19 989.63 258.09 997.05 258.09 997.05 211.19 1015.13 211.19 1015.13 204.29 971.78 204.29 971.78 211.19"/>
  <path class="cls-2" d="m930.84,203.99l-23.97,54.08h7.85l6.3-14.3h25.91l6.44,14.3h7.9l-24.06-54.08h-6.37Zm13.43,33.05h-20.56l10.27-22.82,10.28,22.82Z"/>
  <path class="cls-2" d="m875.61,204.29h-22.76v53.79h7.42v-22.88h15.34c10.66,0,17.56-6.11,17.56-15.57,0-9.32-6.89-15.34-17.56-15.34Zm10.22,15.5c0,5.5-3.76,8.5-10.59,8.5h-14.96v-17.1h14.96c6.83,0,10.59,3.05,10.59,8.59h0Z"/>
  <path class="cls-2" d="m1107.76,233.46c-1.25-1.21-2.68-2.22-4.24-3-1.5-.79-3.05-1.48-4.65-2.05-1.04-.37-2.39-.79-4.04-1.3l-7.35-2.11-2.5-.96c-.77-.25-1.51-.61-2.2-1.05-2.23-1.71-3.2-3.33-2.96-5.08,0-4.61,4.43-7.47,11.55-7.47,5.31,0,10.52,1.57,15.5,4.67l1.5.93v-7.91l-.46-.29c-4.7-2.95-10.3-4.44-16.68-4.44-5.8,0-10.44,1.34-13.79,4-3.27,2.45-5.17,6.31-5.1,10.39-.03,3.39,1.24,6.66,3.54,9.14,1.21,1.15,2.6,2.09,4.12,2.78,1.52.72,3.09,1.34,4.7,1.87,1.05.35,2.43.74,4.09,1.23l1.44.42c1.34.38,2.41.71,3.17.95l3.96,1.33c1.04.32,2.03.79,2.93,1.4,1.27.77,4.2,2.89,3.82,6.2,0,5.27-5.24,8.81-13.04,8.81-3.56,0-7.09-.61-10.43-1.84-2.82-1.04-5.45-2.53-7.78-4.42l-1.6-1.37v8.75l.39.29c4.63,3.5,12.21,5.67,19.77,5.67,5.57,0,10.35-1.4,14.2-4.17,4-2.83,6.04-6.79,6.04-11.76,0-3.69-1.51-7.37-3.91-9.6Z"/>
  <rect class="cls-2" x="1332.68" y="204.29" width="7.42" height="53.8"/>
  <polygon class="cls-2" points="1376.11 232.75 1400.78 232.75 1400.78 225.85 1376.11 225.85 1376.11 211.19 1406.19 211.19 1406.19 204.29 1368.69 204.29 1368.69 258.09 1407.31 258.09 1407.31 251.19 1376.11 251.19 1376.11 232.75"/>
  <path class="cls-2" d="m1169.85,233.46c-1.25-1.21-2.68-2.22-4.24-3-1.5-.79-3.05-1.48-4.64-2.05-1.05-.38-2.43-.8-4.1-1.32l-7.29-2.09-2.53-.93c-.77-.25-1.51-.61-2.2-1.05-2.23-1.71-3.2-3.33-2.96-4.95v-.14c0-4.61,4.43-7.47,11.55-7.47,5.31,0,10.5,1.57,15.5,4.67l1.5.93v-7.94l-.46-.29c-4.69-2.95-10.3-4.44-16.67-4.44-5.8,0-10.44,1.34-13.79,4-3.27,2.45-5.17,6.31-5.1,10.39-.03,3.39,1.24,6.66,3.54,9.14,1.2,1.15,2.6,2.09,4.12,2.78,1.53.73,3.1,1.36,4.71,1.9,1.07.36,2.46.76,4.13,1.24l1.39.4c1.35.38,2.41.71,3.18.95l3.96,1.33c1.04.32,2.03.79,2.93,1.4,1.27.77,4.2,2.89,3.83,6.2,0,5.27-5.24,8.81-13.04,8.81-3.55,0-7.07-.64-10.4-1.87-2.82-1.04-5.46-2.53-7.79-4.43l-1.6-1.37v8.75l.39.29c4.63,3.5,12.21,5.67,19.77,5.67,5.57,0,10.35-1.4,14.2-4.17,4-2.83,6.04-6.79,6.04-11.76,0-3.68-1.51-7.36-3.91-9.6Z"/>
  <path class="cls-2" d="m1303.71,219.34c0-9.14-6.8-15.05-17.34-15.05h-24.16v53.79h7.42v-23.32h14.39l16.31,23.32h8.82l-16.96-24.17c7.16-1.73,11.53-7.2,11.53-14.57Zm-7.42.22c0,5.35-3.63,8.3-10.22,8.3h-16.45v-16.66h16.45c6.51,0,10.23,3.05,10.23,8.39v-.02Z"/>
  <polygon class="cls-2" points="1206.66 232.75 1231.33 232.75 1231.33 225.85 1206.66 225.85 1206.66 211.19 1236.74 211.19 1236.74 204.29 1199.24 204.29 1199.24 258.09 1237.85 258.09 1237.85 251.19 1206.66 251.19 1206.66 232.75"/>
  <g>
    <path class="cls-1" d="m147.63,104.14c-10.93,32.11-36.8,50.62-69.13,50.62C35.24,154.77,0,121.99,0,77.83S37.91,0,82.29,0c20.29,0,36.35,6.91,48.62,16.95l9.14-11.82h4.68v61.77h-4.68l-15.16-40.14c-7.14-10.7-18.96-21.19-38.13-21.19-35.68,0-63.33,27.43-63.33,67.79s28.54,68.24,62.44,68.24c25.42,0,47.05-15.16,57.54-39.47l4.24,2.01Z"/>
    <path class="cls-1" d="m312.43,147.63v4.46h-43.04l-52.18-70.69v-2.68l20.29-.45c21.85-1.78,36.35-16.06,36.35-36.35s-14.27-34.79-38.8-34.79h-30.78v134.7l18.06,5.8v4.46h-57.76v-4.46l18.06-5.8V12.93l-18.06-5.8V2.68h80.06c31.44,0,51.96,16.06,51.96,39.47s-20.52,40.59-51.96,40.59h-13.16c1.34.45,2.9.89,4.46,1.56,5.58,2.45,11.37,6.69,26.31,24.53,3.57,4.91,12.49,15.83,22.97,28.32l27.21,10.48Z"/>
    <path class="cls-1" d="m441.32,109.5v42.59h-123.99v-4.46l18.06-5.8V12.93l-18.06-5.8V2.68h121.76v42.59h-4.68l-12.93-38.13h-64.45v68.02h51.51l10.04-22.3h4.68v49.06h-4.68l-10.04-22.3h-51.51v68.02h66.68l12.93-38.13h4.68Z"/>
    <path class="cls-1" d="m621.95,12.93v128.9l17.39,5.8v4.46h-56.2v-4.46l17.39-5.8V19.85l-56.2,95h-5.35l-57.98-94.55v121.54l17.62,5.8v4.46h-39.7v-4.46l17.17-5.8V14.05l-17.17-6.91V2.68h37.69l55.08,89.65v.22L604.11,2.68h35.24v4.46l-17.39,5.8Z"/>
    <path class="cls-1" d="m778.27,109.5v42.59h-123.99v-4.46l18.06-5.8V12.93l-18.06-5.8V2.68h121.76v42.59h-4.68l-12.93-38.13h-64.45v68.02h51.51l10.04-22.3h4.68v49.06h-4.68l-10.04-22.3h-51.51v68.02h66.68l12.93-38.13h4.68Z"/>
    <path class="cls-1" d="m1001.71,77.38c0,41.48-31.67,74.71-86.3,74.71h-65.79v-4.46l18.06-5.8V12.93l-18.06-5.8V2.68h65.79c54.64,0,86.3,33.23,86.3,74.71Zm-22.97,0c0-39.03-22.75-70.25-65.12-70.25h-24.31v140.49h24.31c42.37,0,65.12-31.22,65.12-70.25Z"/>
    <path class="cls-1" d="m1143.31,109.5v42.59h-123.99v-4.46l18.06-5.8V12.93l-18.06-5.8V2.68h121.76v42.59h-4.68l-12.93-38.13h-64.45v68.02h51.51l10.04-22.3h4.68v49.06h-4.68l-10.04-22.3h-51.51v68.02h66.68l12.93-38.13h4.68Z"/>
    <path class="cls-1" d="m1339.55,107.71v44.38h-124.88v-4.46l18.06-5.8V12.93l-18.06-5.8V2.68h57.76v4.46l-18.06,5.8v134.7h62.67l17.84-39.92h4.68Z"/>
    <path class="cls-1" d="m1508.81,147.63v4.46h-55.53v-4.46l16.73-6.91-14.94-32.56h-74.26l-14.5,33.9,19.85,5.58v4.46h-41.7v-4.46l16.28-5.58L1420.95,2.68h7.81l65.34,137.37,14.72,7.58Zm-55.75-43.93l-36.13-77.83h-.67l-33.67,77.83h70.47Z"/>
    <path class="cls-1" d="m1720.21,104.14c-10.93,32.11-36.8,50.62-69.13,50.62-43.26,0-78.5-32.78-78.5-76.94S1610.49,0,1654.87,0c20.29,0,36.35,6.91,48.62,16.95l9.14-11.82h4.68v61.77h-4.68l-15.17-40.14c-7.14-10.7-18.96-21.19-38.13-21.19-35.68,0-63.33,27.43-63.33,67.79s28.54,68.24,62.44,68.24c25.42,0,47.05-15.16,57.54-39.47l4.24,2.01Z"/>
    <path class="cls-1" d="m1885.01,147.63v4.46h-43.04l-52.18-70.69v-2.68l20.29-.45c21.85-1.78,36.35-16.06,36.35-36.35s-14.27-34.79-38.8-34.79h-30.78v134.7l18.06,5.8v4.46h-57.76v-4.46l18.06-5.8V12.93l-18.06-5.8V2.68h80.06c31.44,0,51.96,16.06,51.96,39.47s-20.52,40.59-51.96,40.59h-13.16c1.34.45,2.9.89,4.46,1.56,5.58,2.45,11.37,6.69,26.32,24.53,3.57,4.91,12.49,15.83,22.97,28.32l27.21,10.48Z"/>
    <path class="cls-1" d="m2013.9,109.5v42.59h-123.99v-4.46l18.06-5.8V12.93l-18.06-5.8V2.68h121.76v42.59h-4.68l-12.93-38.13h-64.45v68.02h51.51l10.04-22.3h4.68v49.06h-4.68l-10.04-22.3h-51.51v68.02h66.68l12.93-38.13h4.68Z"/>
    <path class="cls-1" d="m2194.53,12.93v128.9l17.39,5.8v4.46h-56.2v-4.46l17.39-5.8V19.85l-56.2,95h-5.35l-57.98-94.55v121.54l17.62,5.8v4.46h-39.7v-4.46l17.17-5.8V14.05l-17.17-6.91V2.68h37.69l55.08,89.65v.22l52.41-89.87h35.24v4.46l-17.39,5.8Z"/>
    <path class="cls-1" d="m2350.85,109.5v42.59h-123.99v-4.46l18.06-5.8V12.93l-18.06-5.8V2.68h121.76v42.59h-4.68l-12.93-38.13h-64.45v68.02h51.51l10.04-22.3h4.68v49.06h-4.68l-10.04-22.3h-51.51v68.02h66.68l12.93-38.13h4.68Z"/>
  </g>
</svg>